<svg id="my-svg" width="100%" xmlns="http://www.w3.org/2000/svg" xmlns:xlink="http://www.w3.org/1999/xlink" style="max-width: 1282.27px; background-color: white;" viewBox="-8 -8 1282.2734375 467" role="graphics-document document" aria-roledescription="flowchart-v2"><style>#my-svg{font-family:"trebuchet ms",verdana,arial,sans-serif;font-size:16px;fill:#333;}#my-svg .error-icon{fill:#552222;}#my-svg .error-text{fill:#552222;stroke:#552222;}#my-svg .edge-thickness-normal{stroke-width:2px;}#my-svg .edge-thickness-thick{stroke-width:3.5px;}#my-svg .edge-pattern-solid{stroke-dasharray:0;}#my-svg .edge-pattern-dashed{stroke-dasharray:3;}#my-svg .edge-pattern-dotted{stroke-dasharray:2;}#my-svg .marker{fill:#333333;stroke:#333333;}#my-svg .marker.cross{stroke:#333333;}#my-svg svg{font-family:"trebuchet ms",verdana,arial,sans-serif;font-size:16px;}#my-svg .label{font-family:"trebuchet ms",verdana,arial,sans-serif;color:#333;}#my-svg .cluster-label text{fill:#333;}#my-svg .cluster-label span,#my-svg p{color:#333;}#my-svg .label text,#my-svg span,#my-svg p{fill:#333;color:#333;}#my-svg .node rect,#my-svg .node circle,#my-svg .node ellipse,#my-svg .node polygon,#my-svg .node path{fill:#ECECFF;stroke:#9370DB;stroke-width:1px;}#my-svg .flowchart-label text{text-anchor:middle;}#my-svg .node .katex path{fill:#000;stroke:#000;stroke-width:1px;}#my-svg .node .label{text-align:center;}#my-svg .node.clickable{cursor:pointer;}#my-svg .arrowheadPath{fill:#333333;}#my-svg .edgePath .path{stroke:#333333;stroke-width:2.0px;}#my-svg .flowchart-link{stroke:#333333;fill:none;}#my-svg .edgeLabel{background-color:#e8e8e8;text-align:center;}#my-svg .edgeLabel rect{opacity:0.5;background-color:#e8e8e8;fill:#e8e8e8;}#my-svg .labelBkg{background-color:rgba(232, 232, 232, 0.5);}#my-svg .cluster rect{fill:#ffffde;stroke:#aaaa33;stroke-width:1px;}#my-svg .cluster text{fill:#333;}#my-svg .cluster span,#my-svg p{color:#333;}#my-svg div.mermaidTooltip{position:absolute;text-align:center;max-width:200px;padding:2px;font-family:"trebuchet ms",verdana,arial,sans-serif;font-size:12px;background:hsl(80, 100%, 96.2745098039%);border:1px solid #aaaa33;border-radius:2px;pointer-events:none;z-index:100;}#my-svg .flowchartTitleText{text-anchor:middle;font-size:18px;fill:#333;}#my-svg :root{--mermaid-font-family:"trebuchet ms",verdana,arial,sans-serif;}#my-svg .seam&gt;*{fill:rgb(227, 242, 227)!important;stroke:rgb(46, 125, 50)!important;color:rgb(27, 94, 32)!important;}#my-svg .seam span{fill:rgb(227, 242, 227)!important;stroke:rgb(46, 125, 50)!important;color:rgb(27, 94, 32)!important;}#my-svg .seam tspan{fill:rgb(27, 94, 32)!important;}</style><g><marker id="my-svg_flowchart-pointEnd" class="marker flowchart" viewBox="0 0 10 10" refX="6" refY="5" markerUnits="userSpaceOnUse" markerWidth="12" markerHeight="12" orient="auto"><path d="M 0 0 L 10 5 L 0 10 z" class="arrowMarkerPath" style="stroke-width: 1; stroke-dasharray: 1, 0;"/></marker><marker id="my-svg_flowchart-pointStart" class="marker flowchart" viewBox="0 0 10 10" refX="4.5" refY="5" markerUnits="userSpaceOnUse" markerWidth="12" markerHeight="12" orient="auto"><path d="M 0 5 L 10 10 L 10 0 z" class="arrowMarkerPath" style="stroke-width: 1; stroke-dasharray: 1, 0;"/></marker><marker id="my-svg_flowchart-circleEnd" class="marker flowchart" viewBox="0 0 10 10" refX="11" refY="5" markerUnits="userSpaceOnUse" markerWidth="11" markerHeight="11" orient="auto"><circle cx="5" cy="5" r="5" class="arrowMarkerPath" style="stroke-width: 1; stroke-dasharray: 1, 0;"/></marker><marker id="my-svg_flowchart-circleStart" class="marker flowchart" viewBox="0 0 10 10" refX="-1" refY="5" markerUnits="userSpaceOnUse" markerWidth="11" markerHeight="11" orient="auto"><circle cx="5" cy="5" r="5" class="arrowMarkerPath" style="stroke-width: 1; stroke-dasharray: 1, 0;"/></marker><marker id="my-svg_flowchart-crossEnd" class="marker cross flowchart" viewBox="0 0 11 11" refX="12" refY="5.2" markerUnits="userSpaceOnUse" markerWidth="11" markerHeight="11" orient="auto"><path d="M 1,1 l 9,9 M 10,1 l -9,9" class="arrowMarkerPath" style="stroke-width: 2; stroke-dasharray: 1, 0;"/></marker><marker id="my-svg_flowchart-crossStart" class="marker cross flowchart" viewBox="0 0 11 11" refX="-1" refY="5.2" markerUnits="userSpaceOnUse" markerWidth="11" markerHeight="11" orient="auto"><path d="M 1,1 l 9,9 M 10,1 l -9,9" class="arrowMarkerPath" style="stroke-width: 2; stroke-dasharray: 1, 0;"/></marker><g class="root"><g class="clusters"><g class="cluster default flowchart-label" id="GGP"><rect style="" rx="0" ry="0" x="54.84765625" y="83" width="1165.8828125" height="101"/><g class="cluster-label" transform="translate(435.65625, 83)"><foreignObject width="404.265625" height="18"><div xmlns="http://www.w3.org/1999/xhtml" style="display: inline-block; white-space: nowrap;"><span class="nodeLabel">GstGenericPlayer · initMsePipelineExplicit() — DEFAULT</span></div></foreignObject></g></g></g><g class="edgePaths"><path d="M371.781,267L371.781,271.167C371.781,275.333,371.781,283.667,360.554,291.712C349.326,299.757,326.872,307.513,315.644,311.391L304.417,315.27" id="L-AC-AG-0" class="edge-thickness-normal edge-pattern-solid flowchart-link LS-AC LE-AG" style="fill:none;" marker-end="url(#my-svg_flowchart-pointEnd)"/><path d="M900.875,267L900.875,271.167C900.875,275.333,900.875,283.667,889.648,291.712C878.42,299.757,855.965,307.513,844.738,311.391L833.511,315.27" id="L-VC-VG-0" class="edge-thickness-normal edge-pattern-solid flowchart-link LS-VC LE-VG" style="fill:none;" marker-end="url(#my-svg_flowchart-pointEnd)"/><path d="M1151.922,267L1151.922,271.167C1151.922,275.333,1151.922,283.667,1151.922,291.117C1151.922,298.567,1151.922,305.133,1151.922,308.417L1151.922,311.7" id="L-SC-SG-0" class="edge-thickness-normal edge-pattern-solid flowchart-link LS-SC LE-SG" style="fill:none;" marker-end="url(#my-svg_flowchart-pointEnd)"/><path d="M272.228,159L257.635,163.167C243.043,167.333,213.857,175.667,199.265,184C184.672,192.333,184.672,200.667,184.672,211.75C184.672,222.833,184.672,236.667,184.672,250.5C184.672,264.333,184.672,278.167,190.645,288.785C196.618,299.403,208.564,306.805,214.536,310.507L220.509,314.208" id="L-BE-AG-0" class="edge-thickness-normal edge-pattern-solid flowchart-link LS-BE LE-AG" style="fill:none;" marker-end="url(#my-svg_flowchart-pointEnd)"/><path d="M477.692,159L496.671,163.167C515.651,167.333,553.611,175.667,572.591,184C591.57,192.333,591.57,200.667,591.57,211.75C591.57,222.833,591.57,236.667,591.57,250.5C591.57,264.333,591.57,278.167,609.7,289.061C627.829,299.955,664.089,307.91,682.218,311.887L700.348,315.864" id="L-BE-VG-0" class="edge-thickness-normal edge-pattern-solid flowchart-link LS-BE LE-VG" style="fill:none;" marker-end="url(#my-svg_flowchart-pointEnd)"/><path d="M251.641,350L251.641,355.667C251.641,361.333,251.641,372.667,251.641,383.117C251.641,393.567,251.641,403.133,251.641,407.917L251.641,412.7" id="L-AG-SAD-0" class="edge-thickness-normal edge-pattern-dotted flowchart-link LS-AG LE-SAD" style="fill:none;stroke-width:2px;stroke-dasharray:3;" marker-end="url(#my-svg_flowchart-pointEnd)"/><path d="M780.734,350L780.734,355.667C780.734,361.333,780.734,372.667,780.734,383.117C780.734,393.567,780.734,403.133,780.734,407.917L780.734,412.7" id="L-VG-SVP-0" class="edge-thickness-normal edge-pattern-dotted flowchart-link LS-VG LE-SVP" style="fill:none;stroke-width:2px;stroke-dasharray:3;" marker-end="url(#my-svg_flowchart-pointEnd)"/><path d="M900.875,33L900.875,37.167C900.875,41.333,900.875,49.667,900.875,57.117C900.875,64.567,900.875,71.133,900.875,74.417L900.875,77.7" id="L-API-GGP-0" class="edge-thickness-normal edge-pattern-solid flowchart-link LS-API LE-GGP" style="fill:none;" marker-end="url(#my-svg_flowchart-pointEnd)"/><path d="M371.781,184L371.781,188.167C371.781,192.333,371.781,200.667,371.781,208.117C371.781,215.567,371.781,222.133,371.781,225.417L371.781,228.7" id="L-GGP-AC-0" class="edge-thickness-normal edge-pattern-solid flowchart-link LS-GGP LE-AC" style="fill:none;" marker-end="url(#my-svg_flowchart-pointEnd)"/><path d="M900.875,184L900.875,188.167C900.875,192.333,900.875,200.667,900.875,208.117C900.875,215.567,900.875,222.133,900.875,225.417L900.875,228.7" id="L-GGP-VC-0" class="edge-thickness-normal edge-pattern-solid flowchart-link LS-GGP LE-VC" style="fill:none;" marker-end="url(#my-svg_flowchart-pointEnd)"/><path d="M1151.922,184L1151.922,188.167C1151.922,192.333,1151.922,200.667,1151.922,208.117C1151.922,215.567,1151.922,222.133,1151.922,225.417L1151.922,228.7" id="L-GGP-SC-0" class="edge-thickness-normal edge-pattern-solid flowchart-link LS-GGP LE-SC" style="fill:none;" marker-end="url(#my-svg_flowchart-pointEnd)"/></g><g class="edgeLabels"><g class="edgeLabel"><g class="label" transform="translate(0, 0)"><foreignObject width="0" height="0"><div xmlns="http://www.w3.org/1999/xhtml" style="display: inline-block; white-space: nowrap;"><span class="edgeLabel"></span></div></foreignObject></g></g><g class="edgeLabel"><g class="label" transform="translate(0, 0)"><foreignObject width="0" height="0"><div xmlns="http://www.w3.org/1999/xhtml" style="display: inline-block; white-space: nowrap;"><span class="edgeLabel"></span></div></foreignObject></g></g><g class="edgeLabel"><g class="label" transform="translate(0, 0)"><foreignObject width="0" height="0"><div xmlns="http://www.w3.org/1999/xhtml" style="display: inline-block; white-space: nowrap;"><span class="edgeLabel"></span></div></foreignObject></g></g><g class="edgeLabel" transform="translate(184.671875, 250.5)"><g class="label" transform="translate(-58.2578125, -9)"><foreignObject width="116.515625" height="18"><div xmlns="http://www.w3.org/1999/xhtml" style="display: inline-block; white-space: nowrap;"><span class="edgeLabel">createAudioSink</span></div></foreignObject></g></g><g class="edgeLabel" transform="translate(591.5703125, 250.5)"><g class="label" transform="translate(-113.6953125, -9)"><foreignObject width="227.390625" height="18"><div xmlns="http://www.w3.org/1999/xhtml" style="display: inline-block; white-space: nowrap;"><span class="edgeLabel">createVideoSink(name, videoId)</span></div></foreignObject></g></g><g class="edgeLabel" transform="translate(251.640625, 384)"><g class="label" transform="translate(-130.765625, -9)"><foreignObject width="261.53125" height="18"><div xmlns="http://www.w3.org/1999/xhtml" style="display: inline-block; white-space: nowrap;"><span class="edgeLabel">decodebin pad-added (decoder only)</span></div></foreignObject></g></g><g class="edgeLabel" transform="translate(780.734375, 384)"><g class="label" transform="translate(-130.765625, -9)"><foreignObject width="261.53125" height="18"><div xmlns="http://www.w3.org/1999/xhtml" style="display: inline-block; white-space: nowrap;"><span class="edgeLabel">decodebin pad-added (decoder only)</span></div></foreignObject></g></g><g class="edgeLabel"><g class="label" transform="translate(0, 0)"><foreignObject width="0" height="0"><div xmlns="http://www.w3.org/1999/xhtml" style="display: inline-block; white-space: nowrap;"><span class="edgeLabel"></span></div></foreignObject></g></g><g class="edgeLabel"><g class="label" transform="translate(0, 0)"><foreignObject width="0" height="0"><div xmlns="http://www.w3.org/1999/xhtml" style="display: inline-block; white-space: nowrap;"><span class="edgeLabel"></span></div></foreignObject></g></g><g class="edgeLabel"><g class="label" transform="translate(0, 0)"><foreignObject width="0" height="0"><div xmlns="http://www.w3.org/1999/xhtml" style="display: inline-block; white-space: nowrap;"><span class="edgeLabel"></span></div></foreignObject></g></g><g class="edgeLabel"><g class="label" transform="translate(0, 0)"><foreignObject width="0" height="0"><div xmlns="http://www.w3.org/1999/xhtml" style="display: inline-block; white-space: nowrap;"><span class="edgeLabel"></span></div></foreignObject></g></g></g><g class="nodes"><g class="node default default flowchart-label" id="flowchart-PIPE-1" data-node="true" data-id="PIPE" transform="translate(900.875, 133.5)"><rect class="basic label-container" style="" rx="0" ry="0" x="-194.7265625" y="-25.5" width="389.453125" height="51"/><g class="label" style="" transform="translate(-187.2265625, -18)"><rect/><foreignObject width="374.453125" height="36"><div xmlns="http://www.w3.org/1999/xhtml" style="display: inline-block; white-space: nowrap;"><span class="nodeLabel">plain GstPipeline 'media_pipeline'<br />no playbin · no flags · no uri · no playsink · no signals</span></div></foreignObject></g></g><g class="node default seam flowchart-label" id="flowchart-BE-2" data-node="true" data-id="BE" transform="translate(361.53515625, 133.5)"><rect class="basic label-container" style="" rx="0" ry="0" x="-154.234375" y="-25.5" width="308.46875" height="51"/><g class="label" style="" transform="translate(-146.734375, -18)"><rect/><foreignObject width="293.46875" height="36"><div xmlns="http://www.w3.org/1999/xhtml" style="display: inline-block; white-space: nowrap;"><span class="nodeLabel">m_platformBackend → IPlatformBackend<br />THE SoC SEAM</span></div></foreignObject></g></g><g class="node default default flowchart-label" id="flowchart-API-0" data-node="true" data-id="API" transform="translate(900.875, 16.5)"><rect class="basic label-container" style="" rx="0" ry="0" x="-165.796875" y="-16.5" width="331.59375" height="33"/><g class="label" style="" transform="translate(-158.296875, -9)"><rect/><foreignObject width="316.59375" height="18"><div xmlns="http://www.w3.org/1999/xhtml" style="display: inline-block; white-space: nowrap;"><span class="nodeLabel">IMediaPipeline (public API — same contract)</span></div></foreignObject></g></g><g class="node default default flowchart-label" id="flowchart-AC-3" data-node="true" data-id="AC" transform="translate(371.78125, 250.5)"><rect class="basic label-container" style="" rx="0" ry="0" x="-71.09375" y="-16.5" width="142.1875" height="33"/><g class="label" style="" transform="translate(-63.59375, -9)"><rect/><foreignObject width="127.1875" height="18"><div xmlns="http://www.w3.org/1999/xhtml" style="display: inline-block; white-space: nowrap;"><span class="nodeLabel">buildAudioChain()</span></div></foreignObject></g></g><g class="node default default flowchart-label" id="flowchart-VC-4" data-node="true" data-id="VC" transform="translate(900.875, 250.5)"><rect class="basic label-container" style="" rx="0" ry="0" x="-70.953125" y="-16.5" width="141.90625" height="33"/><g class="label" style="" transform="translate(-63.453125, -9)"><rect/><foreignObject width="126.90625" height="18"><div xmlns="http://www.w3.org/1999/xhtml" style="display: inline-block; white-space: nowrap;"><span class="nodeLabel">buildVideoChain()</span></div></foreignObject></g></g><g class="node default default flowchart-label" id="flowchart-SC-5" data-node="true" data-id="SC" transform="translate(1151.921875, 250.5)"><rect class="basic label-container" style="" rx="0" ry="0" x="-77.3203125" y="-16.5" width="154.640625" height="33"/><g class="label" style="" transform="translate(-69.8203125, -9)"><rect/><foreignObject width="139.640625" height="18"><div xmlns="http://www.w3.org/1999/xhtml" style="display: inline-block; white-space: nowrap;"><span class="nodeLabel">buildSubtitleChain()</span></div></foreignObject></g></g><g class="node default default flowchart-label" id="flowchart-AG-6" data-node="true" data-id="AG" transform="translate(251.640625, 333.5)"><rect class="basic label-container" style="" rx="0" ry="0" x="-251.640625" y="-16.5" width="503.28125" height="33"/><g class="label" style="" transform="translate(-244.140625, -9)"><rect/><foreignObject width="488.28125" height="18"><div xmlns="http://www.w3.org/1999/xhtml" style="display: inline-block; white-space: nowrap;"><span class="nodeLabel">appsrc → decodebin → audioconvert → audioresample → audioSink</span></div></foreignObject></g></g><g class="node default default flowchart-label" id="flowchart-VG-7" data-node="true" data-id="VG" transform="translate(780.734375, 333.5)"><rect class="basic label-container" style="" rx="0" ry="0" x="-128.015625" y="-16.5" width="256.03125" height="33"/><g class="label" style="" transform="translate(-120.515625, -9)"><rect/><foreignObject width="241.03125" height="18"><div xmlns="http://www.w3.org/1999/xhtml" style="display: inline-block; white-space: nowrap;"><span class="nodeLabel">appsrc → decodebin → videoSink</span></div></foreignObject></g></g><g class="node default default flowchart-label" id="flowchart-SG-8" data-node="true" data-id="SG" transform="translate(1151.921875, 333.5)"><rect class="basic label-container" style="" rx="0" ry="0" x="-114.3515625" y="-16.5" width="228.703125" height="33"/><g class="label" style="" transform="translate(-106.8515625, -9)"><rect/><foreignObject width="213.703125" height="18"><div xmlns="http://www.w3.org/1999/xhtml" style="display: inline-block; white-space: nowrap;"><span class="nodeLabel">appsrc → RialtoTextTrackSink</span></div></foreignObject></g></g><g class="node default default flowchart-label" id="flowchart-SAD-9" data-node="true" data-id="SAD" transform="translate(251.640625, 434.5)"><rect class="basic label-container" style="" rx="0" ry="0" x="-79.109375" y="-16.5" width="158.21875" height="33"/><g class="label" style="" transform="translate(-71.609375, -9)"><rect/><foreignObject width="143.21875" height="18"><div xmlns="http://www.w3.org/1999/xhtml" style="display: inline-block; white-space: nowrap;"><span class="nodeLabel">SetupAudioDecoder</span></div></foreignObject></g></g><g class="node default default flowchart-label" id="flowchart-SVP-10" data-node="true" data-id="SVP" transform="translate(780.734375, 434.5)"><rect class="basic label-container" style="" rx="0" ry="0" x="-72.2890625" y="-16.5" width="144.578125" height="33"/><g class="label" style="" transform="translate(-64.7890625, -9)"><rect/><foreignObject width="129.578125" height="18"><div xmlns="http://www.w3.org/1999/xhtml" style="display: inline-block; white-space: nowrap;"><span class="nodeLabel">SetupVideoParser</span></div></foreignObject></g></g></g></g></g></svg>